<?xml version="1.0" encoding="UTF-8" standalone="no"?>
<!DOCTYPE svg PUBLIC "-//W3C//DTD SVG 1.1//EN"
 "http://www.w3.org/Graphics/SVG/1.1/DTD/svg11.dtd">
<!-- Generated by graphviz version 2.43.0 (0)
 -->
<!-- Title: dependency&#45;cruiser output Pages: 1 -->
<svg width="833pt" height="825pt"
 viewBox="0.00 0.00 832.50 824.92" xmlns="http://www.w3.org/2000/svg" xmlns:xlink="http://www.w3.org/1999/xlink">
<g id="graph0" class="graph" transform="scale(1 1) rotate(0) translate(4 820.92)">
<title>dependency&#45;cruiser output</title>
<polygon fill="white" stroke="transparent" points="-4,4 -4,-820.92 828.5,-820.92 828.5,4 -4,4"/>
<g id="clust1" class="cluster">
<title>cluster_src</title>
<path fill="#ffffff" stroke="black" stroke-width="2" d="M20,-28.92C20,-28.92 804.5,-28.92 804.5,-28.92 810.5,-28.92 816.5,-34.92 816.5,-40.92 816.5,-40.92 816.5,-796.92 816.5,-796.92 816.5,-802.92 810.5,-808.92 804.5,-808.92 804.5,-808.92 20,-808.92 20,-808.92 14,-808.92 8,-802.92 8,-796.92 8,-796.92 8,-40.92 8,-40.92 8,-34.92 14,-28.92 20,-28.92"/>
<text text-anchor="middle" x="412.25" y="-797.72" font-family="Helvetica,sans-Serif" font-weight="bold" font-size="9.00">src</text>
</g>
<g id="clust2" class="cluster">
<title>cluster_src/dataAccess</title>
<path fill="#ffffff" stroke="black" stroke-width="2" d="M427,-504.92C427,-504.92 796.5,-504.92 796.5,-504.92 802.5,-504.92 808.5,-510.92 808.5,-516.92 808.5,-516.92 808.5,-758.92 808.5,-758.92 808.5,-764.92 802.5,-770.92 796.5,-770.92 796.5,-770.92 427,-770.92 427,-770.92 421,-770.92 415,-764.92 415,-758.92 415,-758.92 415,-516.92 415,-516.92 415,-510.92 421,-504.92 427,-504.92"/>
<text text-anchor="middle" x="611.75" y="-759.72" font-family="Helvetica,sans-Serif" font-weight="bold" font-size="9.00">dataAccess</text>
</g>
<g id="clust3" class="cluster">
<title>cluster_src/dataAccess/db</title>
<path fill="#ffffff" stroke="black" stroke-width="2" d="M569.5,-512.92C569.5,-512.92 651.5,-512.92 651.5,-512.92 657.5,-512.92 663.5,-518.92 663.5,-524.92 663.5,-524.92 663.5,-612.92 663.5,-612.92 663.5,-618.92 657.5,-624.92 651.5,-624.92 651.5,-624.92 569.5,-624.92 569.5,-624.92 563.5,-624.92 557.5,-618.92 557.5,-612.92 557.5,-612.92 557.5,-524.92 557.5,-524.92 557.5,-518.92 563.5,-512.92 569.5,-512.92"/>
<text text-anchor="middle" x="610.5" y="-613.72" font-family="Helvetica,sans-Serif" font-weight="bold" font-size="9.00">db</text>
</g>
<g id="clust4" class="cluster">
<title>cluster_src/dataAccess/entities</title>
<path fill="#ffffff" stroke="black" stroke-width="2" d="M683.5,-604.92C683.5,-604.92 788.5,-604.92 788.5,-604.92 794.5,-604.92 800.5,-610.92 800.5,-616.92 800.5,-616.92 800.5,-704.92 800.5,-704.92 800.5,-710.92 794.5,-716.92 788.5,-716.92 788.5,-716.92 683.5,-716.92 683.5,-716.92 677.5,-716.92 671.5,-710.92 671.5,-704.92 671.5,-704.92 671.5,-616.92 671.5,-616.92 671.5,-610.92 677.5,-604.92 683.5,-604.92"/>
<text text-anchor="middle" x="736" y="-705.72" font-family="Helvetica,sans-Serif" font-weight="bold" font-size="9.00">entities</text>
</g>
<g id="clust5" class="cluster">
<title>cluster_src/dataAccess/mapper</title>
<path fill="#ffffff" stroke="black" stroke-width="2" d="M435,-632.92C435,-632.92 635,-632.92 635,-632.92 641,-632.92 647,-638.92 647,-644.92 647,-644.92 647,-732.92 647,-732.92 647,-738.92 641,-744.92 635,-744.92 635,-744.92 435,-744.92 435,-744.92 429,-744.92 423,-738.92 423,-732.92 423,-732.92 423,-644.92 423,-644.92 423,-638.92 429,-632.92 435,-632.92"/>
<text text-anchor="middle" x="535" y="-733.72" font-family="Helvetica,sans-Serif" font-weight="bold" font-size="9.00">mapper</text>
</g>
<g id="clust6" class="cluster">
<title>cluster_src/dom</title>
<path fill="#ffffff" stroke="black" stroke-width="2" d="M279,-46.92C279,-46.92 537.5,-46.92 537.5,-46.92 543.5,-46.92 549.5,-52.92 549.5,-58.92 549.5,-58.92 549.5,-484.92 549.5,-484.92 549.5,-490.92 543.5,-496.92 537.5,-496.92 537.5,-496.92 279,-496.92 279,-496.92 273,-496.92 267,-490.92 267,-484.92 267,-484.92 267,-58.92 267,-58.92 267,-52.92 273,-46.92 279,-46.92"/>
<text text-anchor="middle" x="408.25" y="-485.72" font-family="Helvetica,sans-Serif" font-weight="bold" font-size="9.00">dom</text>
</g>
<g id="clust7" class="cluster">
<title>cluster_src/dom/domainClass</title>
<path fill="#ffffff" stroke="black" stroke-width="2" d="M322,-358.92C322,-358.92 376,-358.92 376,-358.92 382,-358.92 388,-364.92 388,-370.92 388,-370.92 388,-458.92 388,-458.92 388,-464.92 382,-470.92 376,-470.92 376,-470.92 322,-470.92 322,-470.92 316,-470.92 310,-464.92 310,-458.92 310,-458.92 310,-370.92 310,-370.92 310,-364.92 316,-358.92 322,-358.92"/>
<text text-anchor="middle" x="349" y="-459.72" font-family="Helvetica,sans-Serif" font-weight="bold" font-size="9.00">domainClass</text>
</g>
<g id="clust8" class="cluster">
<title>cluster_src/dom/search</title>
<path fill="#ffffff" stroke="black" stroke-width="2" d="M287,-54.92C287,-54.92 529.5,-54.92 529.5,-54.92 535.5,-54.92 541.5,-60.92 541.5,-66.92 541.5,-66.92 541.5,-338.92 541.5,-338.92 541.5,-344.92 535.5,-350.92 529.5,-350.92 529.5,-350.92 287,-350.92 287,-350.92 281,-350.92 275,-344.92 275,-338.92 275,-338.92 275,-66.92 275,-66.92 275,-60.92 281,-54.92 287,-54.92"/>
<text text-anchor="middle" x="408.25" y="-339.72" font-family="Helvetica,sans-Serif" font-weight="bold" font-size="9.00">search</text>
</g>
<g id="clust9" class="cluster">
<title>cluster_src/dom/search/controllers</title>
<path fill="#ffffff" stroke="black" stroke-width="2" d="M295,-212.92C295,-212.92 521.5,-212.92 521.5,-212.92 527.5,-212.92 533.5,-218.92 533.5,-224.92 533.5,-224.92 533.5,-312.92 533.5,-312.92 533.5,-318.92 527.5,-324.92 521.5,-324.92 521.5,-324.92 295,-324.92 295,-324.92 289,-324.92 283,-318.92 283,-312.92 283,-312.92 283,-224.92 283,-224.92 283,-218.92 289,-212.92 295,-212.92"/>
<text text-anchor="middle" x="408.25" y="-313.72" font-family="Helvetica,sans-Serif" font-weight="bold" font-size="9.00">controllers</text>
</g>
<g id="clust10" class="cluster">
<title>cluster_src/dom/search/services</title>
<path fill="#ffffff" stroke="black" stroke-width="2" d="M299.5,-62.92C299.5,-62.92 517,-62.92 517,-62.92 523,-62.92 529,-68.92 529,-74.92 529,-74.92 529,-192.92 529,-192.92 529,-198.92 523,-204.92 517,-204.92 517,-204.92 299.5,-204.92 299.5,-204.92 293.5,-204.92 287.5,-198.92 287.5,-192.92 287.5,-192.92 287.5,-74.92 287.5,-74.92 287.5,-68.92 293.5,-62.92 299.5,-62.92"/>
<text text-anchor="middle" x="408.25" y="-193.72" font-family="Helvetica,sans-Serif" font-weight="bold" font-size="9.00">services</text>
</g>
<g id="clust11" class="cluster">
<title>cluster_src/modules</title>
<path fill="#ffffff" stroke="black" stroke-width="2" d="M90,-568.92C90,-568.92 390,-568.92 390,-568.92 396,-568.92 402,-574.92 402,-580.92 402,-580.92 402,-608.92 402,-608.92 402,-614.92 396,-620.92 390,-620.92 390,-620.92 90,-620.92 90,-620.92 84,-620.92 78,-614.92 78,-608.92 78,-608.92 78,-580.92 78,-580.92 78,-574.92 84,-568.92 90,-568.92"/>
<text text-anchor="middle" x="240" y="-609.72" font-family="Helvetica,sans-Serif" font-weight="bold" font-size="9.00">modules</text>
</g>
<!-- src/dataAccess/db/db.connection.ts -->
<g id="node1" class="node">
<title>src/dataAccess/db/db.connection.ts</title>
<g id="a_node1"><a xlink:href="src/dataAccess/db/db.connection.ts" xlink:title="db.connection.ts">
<path fill="#ccffcc" stroke="black" d="M646,-598.92C646,-598.92 575,-598.92 575,-598.92 572,-598.92 569,-595.92 569,-592.92 569,-592.92 569,-586.92 569,-586.92 569,-583.92 572,-580.92 575,-580.92 575,-580.92 646,-580.92 646,-580.92 649,-580.92 652,-583.92 652,-586.92 652,-586.92 652,-592.92 652,-592.92 652,-595.92 649,-598.92 646,-598.92"/>
<text text-anchor="start" x="577" y="-587.72" font-family="Helvetica,sans-Serif" font-size="9.00">db.connection.ts</text>
</a>
</g>
</g>
<!-- src/dataAccess/db/psql.connection -->
<g id="node2" class="node">
<title>src/dataAccess/db/psql.connection</title>
<g id="a_node2"><a xlink:title="psql.connection">
<path fill="#ffffcc" stroke="red" d="M645,-568.92C645,-568.92 576,-568.92 576,-568.92 573,-568.92 570,-565.92 570,-562.92 570,-562.92 570,-556.92 570,-556.92 570,-553.92 573,-550.92 576,-550.92 576,-550.92 645,-550.92 645,-550.92 648,-550.92 651,-553.92 651,-556.92 651,-556.92 651,-562.92 651,-562.92 651,-565.92 648,-568.92 645,-568.92"/>
<text text-anchor="start" x="578" y="-557.72" font-family="Helvetica,sans-Serif" font-size="9.00" fill="red">psql.connection</text>
</a>
</g>
</g>
<!-- src/dataAccess/db/psql.connection.ts -->
<g id="node3" class="node">
<title>src/dataAccess/db/psql.connection.ts</title>
<g id="a_node3"><a xlink:href="src/dataAccess/db/psql.connection.ts" xlink:title="psql.connection.ts">
<path fill="#ddfeff" stroke="black" d="M649.5,-538.92C649.5,-538.92 571.5,-538.92 571.5,-538.92 568.5,-538.92 565.5,-535.92 565.5,-532.92 565.5,-532.92 565.5,-526.92 565.5,-526.92 565.5,-523.92 568.5,-520.92 571.5,-520.92 571.5,-520.92 649.5,-520.92 649.5,-520.92 652.5,-520.92 655.5,-523.92 655.5,-526.92 655.5,-526.92 655.5,-532.92 655.5,-532.92 655.5,-535.92 652.5,-538.92 649.5,-538.92"/>
<text text-anchor="start" x="573.5" y="-527.72" font-family="Helvetica,sans-Serif" font-size="9.00">psql.connection.ts</text>
</a>
</g>
</g>
<!-- src/dataAccess/entities/doctor.entity.ts -->
<g id="node4" class="node">
<title>src/dataAccess/entities/doctor.entity.ts</title>
<g id="a_node4"><a xlink:href="src/dataAccess/entities/doctor.entity.ts" xlink:title="doctor.entity.ts">
<path fill="#ddfeff" stroke="black" d="M767.5,-630.92C767.5,-630.92 704.5,-630.92 704.5,-630.92 701.5,-630.92 698.5,-627.92 698.5,-624.92 698.5,-624.92 698.5,-618.92 698.5,-618.92 698.5,-615.92 701.5,-612.92 704.5,-612.92 704.5,-612.92 767.5,-612.92 767.5,-612.92 770.5,-612.92 773.5,-615.92 773.5,-618.92 773.5,-618.92 773.5,-624.92 773.5,-624.92 773.5,-627.92 770.5,-630.92 767.5,-630.92"/>
<text text-anchor="start" x="706.5" y="-619.72" font-family="Helvetica,sans-Serif" font-size="9.00">doctor.entity.ts</text>
</a>
</g>
</g>
<!-- src/dataAccess/db/psql.connection.ts&#45;&gt;src/dataAccess/entities/doctor.entity.ts -->
<g id="edge1" class="edge">
<title>src/dataAccess/db/psql.connection.ts&#45;&gt;src/dataAccess/entities/doctor.entity.ts</title>
<path fill="none" stroke="#000000" stroke-width="2" stroke-opacity="0.200000" d="M651.36,-538.96C655.61,-540.63 659.74,-542.6 663.5,-544.92 690.25,-561.38 713.36,-590.53 725.63,-607.86"/>
<polygon fill="#000000" fill-opacity="0.200000" stroke="#000000" stroke-width="2" stroke-opacity="0.200000" points="723.93,-609.09 729.08,-612.83 727.38,-606.7 723.93,-609.09"/>
</g>
<!-- src/dataAccess/entities/doctorSpecialty.entity.ts -->
<g id="node5" class="node">
<title>src/dataAccess/entities/doctorSpecialty.entity.ts</title>
<g id="a_node5"><a xlink:href="src/dataAccess/entities/doctorSpecialty.entity.ts" xlink:title="doctorSpecialty.entity.ts">
<path fill="#ddfeff" stroke="black" d="M786.5,-660.92C786.5,-660.92 685.5,-660.92 685.5,-660.92 682.5,-660.92 679.5,-657.92 679.5,-654.92 679.5,-654.92 679.5,-648.92 679.5,-648.92 679.5,-645.92 682.5,-642.92 685.5,-642.92 685.5,-642.92 786.5,-642.92 786.5,-642.92 789.5,-642.92 792.5,-645.92 792.5,-648.92 792.5,-648.92 792.5,-654.92 792.5,-654.92 792.5,-657.92 789.5,-660.92 786.5,-660.92"/>
<text text-anchor="start" x="687.5" y="-649.72" font-family="Helvetica,sans-Serif" font-size="9.00">doctorSpecialty.entity.ts</text>
</a>
</g>
</g>
<!-- src/dataAccess/db/psql.connection.ts&#45;&gt;src/dataAccess/entities/doctorSpecialty.entity.ts -->
<g id="edge2" class="edge">
<title>src/dataAccess/db/psql.connection.ts&#45;&gt;src/dataAccess/entities/doctorSpecialty.entity.ts</title>
<path fill="none" stroke="#000000" stroke-width="2" stroke-opacity="0.200000" d="M655.94,-538.32C658.78,-540.13 661.35,-542.31 663.5,-544.92 676.54,-560.77 658.08,-621.39 671.5,-636.92 672.36,-637.91 673.28,-638.85 674.24,-639.73"/>
<polygon fill="#000000" fill-opacity="0.200000" stroke="#000000" stroke-width="2" stroke-opacity="0.200000" points="673.35,-641.7 679.39,-643.68 675.9,-638.36 673.35,-641.7"/>
</g>
<!-- src/dataAccess/entities/specialty.entity.ts -->
<g id="node6" class="node">
<title>src/dataAccess/entities/specialty.entity.ts</title>
<g id="a_node6"><a xlink:href="src/dataAccess/entities/specialty.entity.ts" xlink:title="specialty.entity.ts">
<path fill="#ddfeff" stroke="black" d="M773,-690.92C773,-690.92 699,-690.92 699,-690.92 696,-690.92 693,-687.92 693,-684.92 693,-684.92 693,-678.92 693,-678.92 693,-675.92 696,-672.92 699,-672.92 699,-672.92 773,-672.92 773,-672.92 776,-672.92 779,-675.92 779,-678.92 779,-678.92 779,-684.92 779,-684.92 779,-687.92 776,-690.92 773,-690.92"/>
<text text-anchor="start" x="701" y="-679.72" font-family="Helvetica,sans-Serif" font-size="9.00">specialty.entity.ts</text>
</a>
</g>
</g>
<!-- src/dataAccess/db/psql.connection.ts&#45;&gt;src/dataAccess/entities/specialty.entity.ts -->
<g id="edge3" class="edge">
<title>src/dataAccess/db/psql.connection.ts&#45;&gt;src/dataAccess/entities/specialty.entity.ts</title>
<path fill="none" stroke="#000000" stroke-width="2" stroke-opacity="0.200000" d="M655.53,-537.97C658.54,-539.85 661.26,-542.14 663.5,-544.92 680.54,-566.08 653.95,-646.18 671.5,-666.92 675.62,-671.78 680.99,-675.23 686.87,-677.66"/>
<polygon fill="#000000" fill-opacity="0.200000" stroke="#000000" stroke-width="2" stroke-opacity="0.200000" points="686.53,-679.76 692.89,-679.75 687.91,-675.8 686.53,-679.76"/>
</g>
<!-- src/dataAccess/mapper/doctor.mapper.ts -->
<g id="node7" class="node">
<title>src/dataAccess/mapper/doctor.mapper.ts</title>
<g id="a_node7"><a xlink:href="src/dataAccess/mapper/doctor.mapper.ts" xlink:title="doctor.mapper.ts">
<path fill="#ddfeff" stroke="black" d="M515,-658.92C515,-658.92 442,-658.92 442,-658.92 439,-658.92 436,-655.92 436,-652.92 436,-652.92 436,-646.92 436,-646.92 436,-643.92 439,-640.92 442,-640.92 442,-640.92 515,-640.92 515,-640.92 518,-640.92 521,-643.92 521,-646.92 521,-646.92 521,-652.92 521,-652.92 521,-655.92 518,-658.92 515,-658.92"/>
<text text-anchor="start" x="444" y="-647.72" font-family="Helvetica,sans-Serif" font-size="9.00">doctor.mapper.ts</text>
</a>
</g>
</g>
<!-- src/dataAccess/mapper/doctor.mapper.ts&#45;&gt;src/dataAccess/db/psql.connection -->
<g id="edge8" class="edge">
<title>src/dataAccess/mapper/doctor.mapper.ts&#45;&gt;src/dataAccess/db/psql.connection</title>
<path fill="none" stroke="#000000" stroke-width="2" stroke-opacity="0.200000" d="M486.41,-640.84C498.89,-625.09 526.75,-592.66 557.5,-574.92 559.74,-573.62 562.11,-572.43 564.54,-571.34"/>
<polygon fill="#000000" fill-opacity="0.200000" stroke="#000000" stroke-width="2" stroke-opacity="0.200000" points="565.56,-573.19 570.31,-568.97 563.96,-569.31 565.56,-573.19"/>
</g>
<!-- src/dataAccess/mapper/doctor.mapper.ts&#45;&gt;src/dataAccess/entities/doctor.entity.ts -->
<g id="edge4" class="edge">
<title>src/dataAccess/mapper/doctor.mapper.ts&#45;&gt;src/dataAccess/entities/doctor.entity.ts</title>
<path fill="none" stroke="#000000" stroke-width="2" stroke-opacity="0.200000" d="M521.12,-645.36C568.21,-640.2 644.54,-631.83 692.14,-626.61"/>
<polygon fill="#000000" fill-opacity="0.200000" stroke="#000000" stroke-width="2" stroke-opacity="0.200000" points="692.64,-628.67 698.37,-625.93 692.18,-624.5 692.64,-628.67"/>
</g>
<!-- src/dataAccess/mapper/doctor.mapper.ts&#45;&gt;src/dataAccess/entities/doctorSpecialty.entity.ts -->
<g id="edge5" class="edge">
<title>src/dataAccess/mapper/doctor.mapper.ts&#45;&gt;src/dataAccess/entities/doctorSpecialty.entity.ts</title>
<path fill="none" stroke="#000000" stroke-width="2" stroke-opacity="0.200000" d="M521.12,-650.24C562.26,-650.57 625.71,-651.06 672.82,-651.43"/>
<polygon fill="#000000" fill-opacity="0.200000" stroke="#000000" stroke-width="2" stroke-opacity="0.200000" points="673.05,-653.53 679.07,-651.48 673.08,-649.33 673.05,-653.53"/>
</g>
<!-- src/dataAccess/mapper/doctor.mapper.ts&#45;&gt;src/dataAccess/entities/specialty.entity.ts -->
<g id="edge6" class="edge">
<title>src/dataAccess/mapper/doctor.mapper.ts&#45;&gt;src/dataAccess/entities/specialty.entity.ts</title>
<path fill="none" stroke="#000000" stroke-width="2" stroke-opacity="0.200000" d="M521.12,-655.13C566.55,-660.82 639.17,-669.92 686.98,-675.9"/>
<polygon fill="#000000" fill-opacity="0.200000" stroke="#000000" stroke-width="2" stroke-opacity="0.200000" points="686.76,-677.99 692.97,-676.65 687.28,-673.82 686.76,-677.99"/>
</g>
<!-- src/dataAccess/mapper/mapper.ts -->
<g id="node8" class="node">
<title>src/dataAccess/mapper/mapper.ts</title>
<g id="a_node8"><a xlink:href="src/dataAccess/mapper/mapper.ts" xlink:title="mapper.ts">
<path fill="#ddfeff" stroke="black" d="M633,-714.92C633,-714.92 588,-714.92 588,-714.92 585,-714.92 582,-711.92 582,-708.92 582,-708.92 582,-702.92 582,-702.92 582,-699.92 585,-696.92 588,-696.92 588,-696.92 633,-696.92 633,-696.92 636,-696.92 639,-699.92 639,-702.92 639,-702.92 639,-708.92 639,-708.92 639,-711.92 636,-714.92 633,-714.92"/>
<text text-anchor="start" x="590" y="-703.72" font-family="Helvetica,sans-Serif" font-size="9.00">mapper.ts</text>
</a>
</g>
</g>
<!-- src/dataAccess/mapper/doctor.mapper.ts&#45;&gt;src/dataAccess/mapper/mapper.ts -->
<g id="edge7" class="edge">
<title>src/dataAccess/mapper/doctor.mapper.ts&#45;&gt;src/dataAccess/mapper/mapper.ts</title>
<path fill="none" stroke="#000000" stroke-width="2" stroke-opacity="0.200000" d="M521.04,-656.05C530.61,-658.21 540.59,-661.1 549.5,-664.92 551.81,-665.91 574.53,-681.58 591.34,-693.26"/>
<polygon fill="#000000" fill-opacity="0.200000" stroke="#000000" stroke-width="2" stroke-opacity="0.200000" points="590.21,-695.03 596.33,-696.73 592.6,-691.58 590.21,-695.03"/>
</g>
<!-- src/dataAccess/mapper/specialty.mapper -->
<g id="node9" class="node">
<title>src/dataAccess/mapper/specialty.mapper</title>
<g id="a_node9"><a xlink:title="specialty.mapper">
<path fill="#ffffcc" stroke="red" d="M515.5,-688.92C515.5,-688.92 441.5,-688.92 441.5,-688.92 438.5,-688.92 435.5,-685.92 435.5,-682.92 435.5,-682.92 435.5,-676.92 435.5,-676.92 435.5,-673.92 438.5,-670.92 441.5,-670.92 441.5,-670.92 515.5,-670.92 515.5,-670.92 518.5,-670.92 521.5,-673.92 521.5,-676.92 521.5,-676.92 521.5,-682.92 521.5,-682.92 521.5,-685.92 518.5,-688.92 515.5,-688.92"/>
<text text-anchor="start" x="443.5" y="-677.72" font-family="Helvetica,sans-Serif" font-size="9.00" fill="red">specialty.mapper</text>
</a>
</g>
</g>
<!-- src/dataAccess/mapper/specialty.mapper.ts -->
<g id="node10" class="node">
<title>src/dataAccess/mapper/specialty.mapper.ts</title>
<g id="a_node10"><a xlink:href="src/dataAccess/mapper/specialty.mapper.ts" xlink:title="specialty.mapper.ts">
<path fill="#ddfeff" stroke="black" d="M520,-718.92C520,-718.92 437,-718.92 437,-718.92 434,-718.92 431,-715.92 431,-712.92 431,-712.92 431,-706.92 431,-706.92 431,-703.92 434,-700.92 437,-700.92 437,-700.92 520,-700.92 520,-700.92 523,-700.92 526,-703.92 526,-706.92 526,-706.92 526,-712.92 526,-712.92 526,-715.92 523,-718.92 520,-718.92"/>
<text text-anchor="start" x="439" y="-707.72" font-family="Helvetica,sans-Serif" font-size="9.00">specialty.mapper.ts</text>
</a>
</g>
</g>
<!-- src/dataAccess/mapper/specialty.mapper.ts&#45;&gt;src/dataAccess/db/psql.connection.ts -->
<g id="edge9" class="edge">
<title>src/dataAccess/mapper/specialty.mapper.ts&#45;&gt;src/dataAccess/db/psql.connection.ts</title>
<path fill="none" stroke="#000000" stroke-width="2" stroke-opacity="0.200000" d="M526.28,-708.56C535.16,-706.12 543.53,-701.91 549.5,-694.92 571.17,-669.53 536.73,-571.05 557.5,-544.92 558.33,-543.87 559.23,-542.89 560.19,-541.98"/>
<polygon fill="#000000" fill-opacity="0.200000" stroke="#000000" stroke-width="2" stroke-opacity="0.200000" points="561.96,-543.27 565.43,-537.94 559.4,-539.94 561.96,-543.27"/>
</g>
<!-- src/dataAccess/mapper/specialty.mapper.ts&#45;&gt;src/dataAccess/entities/specialty.entity.ts -->
<g id="edge10" class="edge">
<title>src/dataAccess/mapper/specialty.mapper.ts&#45;&gt;src/dataAccess/entities/specialty.entity.ts</title>
<path fill="none" stroke="#000000" stroke-width="2" stroke-opacity="0.200000" d="M526.27,-701.62C534.12,-699.73 542.11,-697.51 549.5,-694.92 553.25,-693.6 553.66,-691.93 557.5,-690.92 600.1,-679.72 650.38,-678.21 686.53,-679.07"/>
<polygon fill="#000000" fill-opacity="0.200000" stroke="#000000" stroke-width="2" stroke-opacity="0.200000" points="686.6,-681.17 692.65,-679.24 686.72,-676.97 686.6,-681.17"/>
</g>
<!-- src/dataAccess/mapper/specialty.mapper.ts&#45;&gt;src/dataAccess/mapper/mapper.ts -->
<g id="edge11" class="edge">
<title>src/dataAccess/mapper/specialty.mapper.ts&#45;&gt;src/dataAccess/mapper/mapper.ts</title>
<path fill="none" stroke="#000000" stroke-width="2" stroke-opacity="0.200000" d="M526.07,-708.49C542.39,-707.98 560.4,-707.43 575.49,-706.96"/>
<polygon fill="#000000" fill-opacity="0.200000" stroke="#000000" stroke-width="2" stroke-opacity="0.200000" points="575.84,-709.05 581.77,-706.77 575.71,-704.86 575.84,-709.05"/>
</g>
<!-- src/dom/domainClass/doctor.ts -->
<g id="node11" class="node">
<title>src/dom/domainClass/doctor.ts</title>
<g id="a_node11"><a xlink:href="src/dom/domainClass/doctor.ts" xlink:title="doctor.ts">
<path fill="#ccffcc" stroke="black" d="M370,-444.92C370,-444.92 328,-444.92 328,-444.92 325,-444.92 322,-441.92 322,-438.92 322,-438.92 322,-432.92 322,-432.92 322,-429.92 325,-426.92 328,-426.92 328,-426.92 370,-426.92 370,-426.92 373,-426.92 376,-429.92 376,-432.92 376,-432.92 376,-438.92 376,-438.92 376,-441.92 373,-444.92 370,-444.92"/>
<text text-anchor="start" x="331.5" y="-433.72" font-family="Helvetica,sans-Serif" font-size="9.00">doctor.ts</text>
</a>
</g>
</g>
<!-- src/dom/domainClass/enums.ts -->
<g id="node12" class="node">
<title>src/dom/domainClass/enums.ts</title>
<g id="a_node12"><a xlink:href="src/dom/domainClass/enums.ts" xlink:title="enums.ts">
<path fill="#ccffcc" stroke="black" d="M370,-414.92C370,-414.92 328,-414.92 328,-414.92 325,-414.92 322,-411.92 322,-408.92 322,-408.92 322,-402.92 322,-402.92 322,-399.92 325,-396.92 328,-396.92 328,-396.92 370,-396.92 370,-396.92 373,-396.92 376,-399.92 376,-402.92 376,-402.92 376,-408.92 376,-408.92 376,-411.92 373,-414.92 370,-414.92"/>
<text text-anchor="start" x="330.5" y="-403.72" font-family="Helvetica,sans-Serif" font-size="9.00">enums.ts</text>
</a>
</g>
</g>
<!-- src/dom/domainClass/specialty.ts -->
<g id="node13" class="node">
<title>src/dom/domainClass/specialty.ts</title>
<g id="a_node13"><a xlink:href="src/dom/domainClass/specialty.ts" xlink:title="specialty.ts">
<path fill="#ccffcc" stroke="black" d="M374,-384.92C374,-384.92 324,-384.92 324,-384.92 321,-384.92 318,-381.92 318,-378.92 318,-378.92 318,-372.92 318,-372.92 318,-369.92 321,-366.92 324,-366.92 324,-366.92 374,-366.92 374,-366.92 377,-366.92 380,-369.92 380,-372.92 380,-372.92 380,-378.92 380,-378.92 380,-381.92 377,-384.92 374,-384.92"/>
<text text-anchor="start" x="326" y="-373.72" font-family="Helvetica,sans-Serif" font-size="9.00">specialty.ts</text>
</a>
</g>
</g>
<!-- src/dom/search/controllers/search.controller.ts -->
<g id="node14" class="node">
<title>src/dom/search/controllers/search.controller.ts</title>
<g id="a_node14"><a xlink:href="src/dom/search/controllers/search.controller.ts" xlink:title="search.controller.ts">
<path fill="#ddfeff" stroke="black" d="M519.5,-283.92C519.5,-283.92 437.5,-283.92 437.5,-283.92 434.5,-283.92 431.5,-280.92 431.5,-277.92 431.5,-277.92 431.5,-271.92 431.5,-271.92 431.5,-268.92 434.5,-265.92 437.5,-265.92 437.5,-265.92 519.5,-265.92 519.5,-265.92 522.5,-265.92 525.5,-268.92 525.5,-271.92 525.5,-271.92 525.5,-277.92 525.5,-277.92 525.5,-280.92 522.5,-283.92 519.5,-283.92"/>
<text text-anchor="start" x="439.5" y="-272.72" font-family="Helvetica,sans-Serif" font-size="9.00">search.controller.ts</text>
</a>
</g>
</g>
<!-- src/dom/search/controllers/specialty.controller.ts -->
<g id="node15" class="node">
<title>src/dom/search/controllers/specialty.controller.ts</title>
<g id="a_node15"><a xlink:href="src/dom/search/controllers/specialty.controller.ts" xlink:title="specialty.controller.ts">
<path fill="#ddfeff" stroke="black" d="M394,-268.92C394,-268.92 304,-268.92 304,-268.92 301,-268.92 298,-265.92 298,-262.92 298,-262.92 298,-256.92 298,-256.92 298,-253.92 301,-250.92 304,-250.92 304,-250.92 394,-250.92 394,-250.92 397,-250.92 400,-253.92 400,-256.92 400,-256.92 400,-262.92 400,-262.92 400,-265.92 397,-268.92 394,-268.92"/>
<text text-anchor="start" x="306" y="-257.72" font-family="Helvetica,sans-Serif" font-size="9.00">specialty.controller.ts</text>
</a>
</g>
</g>
<!-- src/dom/search/controllers/specialty.controller.ts&#45;&gt;src/dom/search/controllers/search.controller.ts -->
<g id="edge12" class="edge">
<title>src/dom/search/controllers/specialty.controller.ts&#45;&gt;src/dom/search/controllers/search.controller.ts</title>
<path fill="none" stroke="#000000" stroke-width="2" stroke-opacity="0.200000" d="M400.03,-265.8C408.25,-266.77 416.8,-267.78 425.09,-268.75"/>
<polygon fill="#000000" fill-opacity="0.200000" stroke="#000000" stroke-width="2" stroke-opacity="0.200000" points="425.16,-270.87 431.36,-269.49 425.65,-266.7 425.16,-270.87"/>
</g>
<!-- src/dom/search/controllers/specialtyList.controller -->
<g id="node16" class="node">
<title>src/dom/search/controllers/specialtyList.controller</title>
<g id="a_node16"><a xlink:title="specialtyList.controller">
<path fill="#ffffcc" stroke="red" d="M396.5,-238.92C396.5,-238.92 301.5,-238.92 301.5,-238.92 298.5,-238.92 295.5,-235.92 295.5,-232.92 295.5,-232.92 295.5,-226.92 295.5,-226.92 295.5,-223.92 298.5,-220.92 301.5,-220.92 301.5,-220.92 396.5,-220.92 396.5,-220.92 399.5,-220.92 402.5,-223.92 402.5,-226.92 402.5,-226.92 402.5,-232.92 402.5,-232.92 402.5,-235.92 399.5,-238.92 396.5,-238.92"/>
<text text-anchor="start" x="303.5" y="-227.72" font-family="Helvetica,sans-Serif" font-size="9.00" fill="red">specialtyList.controller</text>
</a>
</g>
</g>
<!-- src/dom/search/controllers/specialtyList.controller.ts -->
<g id="node17" class="node">
<title>src/dom/search/controllers/specialtyList.controller.ts</title>
<g id="a_node17"><a xlink:href="src/dom/search/controllers/specialtyList.controller.ts" xlink:title="specialtyList.controller.ts">
<path fill="#ddfeff" stroke="black" d="M401,-298.92C401,-298.92 297,-298.92 297,-298.92 294,-298.92 291,-295.92 291,-292.92 291,-292.92 291,-286.92 291,-286.92 291,-283.92 294,-280.92 297,-280.92 297,-280.92 401,-280.92 401,-280.92 404,-280.92 407,-283.92 407,-286.92 407,-286.92 407,-292.92 407,-292.92 407,-295.92 404,-298.92 401,-298.92"/>
<text text-anchor="start" x="299" y="-287.72" font-family="Helvetica,sans-Serif" font-size="9.00">specialtyList.controller.ts</text>
</a>
</g>
</g>
<!-- src/dom/search/controllers/specialtyList.controller.ts&#45;&gt;src/dom/search/controllers/search.controller.ts -->
<g id="edge13" class="edge">
<title>src/dom/search/controllers/specialtyList.controller.ts&#45;&gt;src/dom/search/controllers/search.controller.ts</title>
<path fill="none" stroke="#000000" stroke-width="2" stroke-opacity="0.200000" d="M407.04,-283.21C412.98,-282.51 419,-281.8 424.89,-281.11"/>
<polygon fill="#000000" fill-opacity="0.200000" stroke="#000000" stroke-width="2" stroke-opacity="0.200000" points="425.5,-283.15 431.21,-280.36 425.01,-278.98 425.5,-283.15"/>
</g>
<!-- src/dom/search/services/bySpecialty.service.ts -->
<g id="node18" class="node">
<title>src/dom/search/services/bySpecialty.service.ts</title>
<g id="a_node18"><a xlink:href="src/dom/search/services/bySpecialty.service.ts" xlink:title="bySpecialty.service.ts">
<path fill="#ddfeff" stroke="black" d="M395,-88.92C395,-88.92 303,-88.92 303,-88.92 300,-88.92 297,-85.92 297,-82.92 297,-82.92 297,-76.92 297,-76.92 297,-73.92 300,-70.92 303,-70.92 303,-70.92 395,-70.92 395,-70.92 398,-70.92 401,-73.92 401,-76.92 401,-76.92 401,-82.92 401,-82.92 401,-85.92 398,-88.92 395,-88.92"/>
<text text-anchor="start" x="305" y="-77.72" font-family="Helvetica,sans-Serif" font-size="9.00">bySpecialty.service.ts</text>
</a>
</g>
</g>
<!-- src/dom/search/services/bySpecialty.service.ts&#45;&gt;src/dataAccess/mapper/doctor.mapper.ts -->
<g id="edge14" class="edge">
<title>src/dom/search/services/bySpecialty.service.ts&#45;&gt;src/dataAccess/mapper/doctor.mapper.ts</title>
<path fill="none" stroke="#000000" stroke-width="2" stroke-opacity="0.200000" d="M400.85,-89.09C403.13,-90.75 405.21,-92.68 407,-94.92 415.08,-105.04 413.54,-315.05 415,-327.92 428.56,-447.37 462.26,-588.79 473.66,-634.71"/>
<polygon fill="#000000" fill-opacity="0.200000" stroke="#000000" stroke-width="2" stroke-opacity="0.200000" points="471.68,-635.47 475.18,-640.78 475.76,-634.45 471.68,-635.47"/>
</g>
<!-- src/dom/search/services/search.service.ts -->
<g id="node19" class="node">
<title>src/dom/search/services/search.service.ts</title>
<g id="a_node19"><a xlink:href="src/dom/search/services/search.service.ts" xlink:title="search.service.ts">
<path fill="#ddfeff" stroke="black" d="M515,-133.92C515,-133.92 442,-133.92 442,-133.92 439,-133.92 436,-130.92 436,-127.92 436,-127.92 436,-121.92 436,-121.92 436,-118.92 439,-115.92 442,-115.92 442,-115.92 515,-115.92 515,-115.92 518,-115.92 521,-118.92 521,-121.92 521,-121.92 521,-127.92 521,-127.92 521,-130.92 518,-133.92 515,-133.92"/>
<text text-anchor="start" x="444" y="-122.72" font-family="Helvetica,sans-Serif" font-size="9.00">search.service.ts</text>
</a>
</g>
</g>
<!-- src/dom/search/services/bySpecialty.service.ts&#45;&gt;src/dom/search/services/search.service.ts -->
<g id="edge15" class="edge">
<title>src/dom/search/services/bySpecialty.service.ts&#45;&gt;src/dom/search/services/search.service.ts</title>
<path fill="none" stroke="#000000" stroke-width="2" stroke-opacity="0.200000" d="M387.64,-88.99C394.14,-90.8 400.8,-92.8 407,-94.92 422.53,-100.23 439.46,-107.39 452.84,-113.38"/>
<polygon fill="#000000" fill-opacity="0.200000" stroke="#000000" stroke-width="2" stroke-opacity="0.200000" points="452.01,-115.31 458.34,-115.87 453.74,-111.49 452.01,-115.31"/>
</g>
<!-- src/dom/search/services/repository.ts -->
<g id="node20" class="node">
<title>src/dom/search/services/repository.ts</title>
<g id="a_node20"><a xlink:href="src/dom/search/services/repository.ts" xlink:title="repository.ts">
<path fill="#ccffcc" stroke="black" d="M376,-148.92C376,-148.92 322,-148.92 322,-148.92 319,-148.92 316,-145.92 316,-142.92 316,-142.92 316,-136.92 316,-136.92 316,-133.92 319,-130.92 322,-130.92 322,-130.92 376,-130.92 376,-130.92 379,-130.92 382,-133.92 382,-136.92 382,-136.92 382,-142.92 382,-142.92 382,-145.92 379,-148.92 376,-148.92"/>
<text text-anchor="start" x="324" y="-137.72" font-family="Helvetica,sans-Serif" font-size="9.00">repository.ts</text>
</a>
</g>
</g>
<!-- src/dom/search/services/specialtyList.service -->
<g id="node21" class="node">
<title>src/dom/search/services/specialtyList.service</title>
<g id="a_node21"><a xlink:title="specialtyList.service">
<path fill="#ffffcc" stroke="red" d="M392,-118.92C392,-118.92 306,-118.92 306,-118.92 303,-118.92 300,-115.92 300,-112.92 300,-112.92 300,-106.92 300,-106.92 300,-103.92 303,-100.92 306,-100.92 306,-100.92 392,-100.92 392,-100.92 395,-100.92 398,-103.92 398,-106.92 398,-106.92 398,-112.92 398,-112.92 398,-115.92 395,-118.92 392,-118.92"/>
<text text-anchor="start" x="308" y="-107.72" font-family="Helvetica,sans-Serif" font-size="9.00" fill="red">specialtyList.service</text>
</a>
</g>
</g>
<!-- src/dom/search/services/specialtyList.service.ts -->
<g id="node22" class="node">
<title>src/dom/search/services/specialtyList.service.ts</title>
<g id="a_node22"><a xlink:href="src/dom/search/services/specialtyList.service.ts" xlink:title="specialtyList.service.ts">
<path fill="#ddfeff" stroke="black" d="M396.5,-178.92C396.5,-178.92 301.5,-178.92 301.5,-178.92 298.5,-178.92 295.5,-175.92 295.5,-172.92 295.5,-172.92 295.5,-166.92 295.5,-166.92 295.5,-163.92 298.5,-160.92 301.5,-160.92 301.5,-160.92 396.5,-160.92 396.5,-160.92 399.5,-160.92 402.5,-163.92 402.5,-166.92 402.5,-166.92 402.5,-172.92 402.5,-172.92 402.5,-175.92 399.5,-178.92 396.5,-178.92"/>
<text text-anchor="start" x="303.5" y="-167.72" font-family="Helvetica,sans-Serif" font-size="9.00">specialtyList.service.ts</text>
</a>
</g>
</g>
<!-- src/dom/search/services/specialtyList.service.ts&#45;&gt;src/dataAccess/mapper/specialty.mapper -->
<g id="edge17" class="edge">
<title>src/dom/search/services/specialtyList.service.ts&#45;&gt;src/dataAccess/mapper/specialty.mapper</title>
<path fill="none" stroke="#000000" stroke-width="2" stroke-opacity="0.200000" d="M371.9,-179.06C384.59,-185.63 399.51,-195.82 407,-209.92 418.86,-232.25 399.17,-645.2 415,-664.92 418.88,-669.75 424.01,-673.19 429.67,-675.61"/>
<polygon fill="#000000" fill-opacity="0.200000" stroke="#000000" stroke-width="2" stroke-opacity="0.200000" points="429.13,-677.65 435.49,-677.72 430.56,-673.7 429.13,-677.65"/>
</g>
<!-- src/dom/search/services/specialtyList.service.ts&#45;&gt;src/dom/search/services/search.service.ts -->
<g id="edge16" class="edge">
<title>src/dom/search/services/specialtyList.service.ts&#45;&gt;src/dom/search/services/search.service.ts</title>
<path fill="none" stroke="#000000" stroke-width="2" stroke-opacity="0.200000" d="M387.64,-160.84C394.14,-159.04 400.8,-157.04 407,-154.92 422.53,-149.6 439.46,-142.44 452.84,-136.45"/>
<polygon fill="#000000" fill-opacity="0.200000" stroke="#000000" stroke-width="2" stroke-opacity="0.200000" points="453.74,-138.35 458.34,-133.96 452.01,-134.52 453.74,-138.35"/>
</g>
<!-- src/main.ts -->
<g id="node23" class="node">
<title>src/main.ts</title>
<g id="a_node23"><a xlink:href="src/main.ts" xlink:title="main.ts">
<path fill="#ddfeff" stroke="black" d="M64,-594.92C64,-594.92 22,-594.92 22,-594.92 19,-594.92 16,-591.92 16,-588.92 16,-588.92 16,-582.92 16,-582.92 16,-579.92 19,-576.92 22,-576.92 22,-576.92 64,-576.92 64,-576.92 67,-576.92 70,-579.92 70,-582.92 70,-582.92 70,-588.92 70,-588.92 70,-591.92 67,-594.92 64,-594.92"/>
<text text-anchor="start" x="28" y="-583.72" font-family="Helvetica,sans-Serif" font-size="9.00">main.ts</text>
</a>
</g>
</g>
<!-- src/modules/app.module.ts -->
<g id="node24" class="node">
<title>src/modules/app.module.ts</title>
<g id="a_node24"><a xlink:href="src/modules/app.module.ts" xlink:title="app.module.ts">
<path fill="#ddfeff" stroke="black" d="M154,-594.92C154,-594.92 92,-594.92 92,-594.92 89,-594.92 86,-591.92 86,-588.92 86,-588.92 86,-582.92 86,-582.92 86,-579.92 89,-576.92 92,-576.92 92,-576.92 154,-576.92 154,-576.92 157,-576.92 160,-579.92 160,-582.92 160,-582.92 160,-588.92 160,-588.92 160,-591.92 157,-594.92 154,-594.92"/>
<text text-anchor="start" x="94" y="-583.72" font-family="Helvetica,sans-Serif" font-size="9.00">app.module.ts</text>
</a>
</g>
</g>
<!-- src/main.ts&#45;&gt;src/modules/app.module.ts -->
<g id="edge18" class="edge">
<title>src/main.ts&#45;&gt;src/modules/app.module.ts</title>
<path fill="none" stroke="#000000" stroke-width="2" stroke-opacity="0.200000" d="M70.41,-585.92C73.35,-585.92 76.39,-585.92 79.47,-585.92"/>
<polygon fill="#000000" fill-opacity="0.200000" stroke="#000000" stroke-width="2" stroke-opacity="0.200000" points="79.8,-588.02 85.8,-585.92 79.8,-583.82 79.8,-588.02"/>
</g>
<!-- src/modules/app.module.ts&#45;&gt;src/dataAccess/db/psql.connection.ts -->
<g id="edge19" class="edge">
<title>src/modules/app.module.ts&#45;&gt;src/dataAccess/db/psql.connection.ts</title>
<path fill="none" stroke="#000000" stroke-width="2" stroke-opacity="0.200000" d="M124.99,-576.84C132.2,-512.6 178.85,-127.3 267,-59.92 366.75,16.33 455.27,23.05 549.5,-59.92 584.56,-90.79 604.64,-436.89 608.72,-514.53"/>
<polygon fill="#000000" fill-opacity="0.200000" stroke="#000000" stroke-width="2" stroke-opacity="0.200000" points="606.64,-514.92 609.05,-520.81 610.83,-514.71 606.64,-514.92"/>
</g>
<!-- src/modules/search.module.ts -->
<g id="node25" class="node">
<title>src/modules/search.module.ts</title>
<g id="a_node25"><a xlink:href="src/modules/search.module.ts" xlink:title="search.module.ts">
<path fill="#ddfeff" stroke="black" d="M253,-594.92C253,-594.92 179,-594.92 179,-594.92 176,-594.92 173,-591.92 173,-588.92 173,-588.92 173,-582.92 173,-582.92 173,-579.92 176,-576.92 179,-576.92 179,-576.92 253,-576.92 253,-576.92 256,-576.92 259,-579.92 259,-582.92 259,-582.92 259,-588.92 259,-588.92 259,-591.92 256,-594.92 253,-594.92"/>
<text text-anchor="start" x="181" y="-583.72" font-family="Helvetica,sans-Serif" font-size="9.00">search.module.ts</text>
</a>
</g>
</g>
<!-- src/modules/app.module.ts&#45;&gt;src/modules/search.module.ts -->
<g id="edge20" class="edge">
<title>src/modules/app.module.ts&#45;&gt;src/modules/search.module.ts</title>
<path fill="none" stroke="#000000" stroke-width="2" stroke-opacity="0.200000" d="M160.23,-585.92C162.31,-585.92 164.42,-585.92 166.53,-585.92"/>
<polygon fill="#000000" fill-opacity="0.200000" stroke="#000000" stroke-width="2" stroke-opacity="0.200000" points="166.89,-588.02 172.89,-585.92 166.89,-583.82 166.89,-588.02"/>
</g>
<!-- src/modules/search.module.ts&#45;&gt;src/dom/search/controllers/specialty.controller.ts -->
<g id="edge26" class="edge">
<title>src/modules/search.module.ts&#45;&gt;src/dom/search/controllers/specialty.controller.ts</title>
<path fill="none" stroke="#000000" stroke-width="2" stroke-opacity="0.200000" d="M217.11,-576.87C217.84,-530.44 223.54,-319.42 267,-274.92 273.79,-267.97 282.67,-263.65 292.06,-261.06"/>
<polygon fill="#000000" fill-opacity="0.200000" stroke="#000000" stroke-width="2" stroke-opacity="0.200000" points="292.61,-263.09 297.96,-259.66 291.64,-259 292.61,-263.09"/>
</g>
<!-- src/modules/search.module.ts&#45;&gt;src/dom/search/controllers/specialtyList.controller -->
<g id="edge29" class="edge">
<title>src/modules/search.module.ts&#45;&gt;src/dom/search/controllers/specialtyList.controller</title>
<path fill="none" stroke="#000000" stroke-width="2" stroke-opacity="0.200000" d="M216.97,-576.66C216.98,-527.17 219.58,-294.15 267,-244.92 273.13,-238.56 281.01,-234.39 289.45,-231.73"/>
<polygon fill="#000000" fill-opacity="0.200000" stroke="#000000" stroke-width="2" stroke-opacity="0.200000" points="290.12,-233.73 295.36,-230.13 289.02,-229.67 290.12,-233.73"/>
</g>
<!-- src/modules/search.module.ts&#45;&gt;src/dom/search/services/bySpecialty.service.ts -->
<g id="edge27" class="edge">
<title>src/modules/search.module.ts&#45;&gt;src/dom/search/services/bySpecialty.service.ts</title>
<path fill="none" stroke="#000000" stroke-width="2" stroke-opacity="0.200000" d="M217.28,-576.89C219.33,-513.11 232.96,-131.86 267,-94.92 273.36,-88.02 281.78,-83.67 290.79,-81.02"/>
<polygon fill="#000000" fill-opacity="0.200000" stroke="#000000" stroke-width="2" stroke-opacity="0.200000" points="291.47,-83.01 296.78,-79.51 290.45,-78.94 291.47,-83.01"/>
</g>
<!-- src/modules/search.module.ts&#45;&gt;src/dom/search/services/specialtyList.service -->
<g id="edge30" class="edge">
<title>src/modules/search.module.ts&#45;&gt;src/dom/search/services/specialtyList.service</title>
<path fill="none" stroke="#000000" stroke-width="2" stroke-opacity="0.200000" d="M217.35,-576.66C219.78,-514.5 235.04,-159.37 267,-124.92 274.07,-117.29 283.67,-112.79 293.77,-110.25"/>
<polygon fill="#000000" fill-opacity="0.200000" stroke="#000000" stroke-width="2" stroke-opacity="0.200000" points="294.34,-112.28 299.77,-108.97 293.46,-108.17 294.34,-112.28"/>
</g>
<!-- src/modules/mapper.module.ts -->
<g id="node26" class="node">
<title>src/modules/mapper.module.ts</title>
<g id="a_node26"><a xlink:href="src/modules/mapper.module.ts" xlink:title="mapper.module.ts">
<path fill="#ddfeff" stroke="black" d="M388,-594.92C388,-594.92 310,-594.92 310,-594.92 307,-594.92 304,-591.92 304,-588.92 304,-588.92 304,-582.92 304,-582.92 304,-579.92 307,-576.92 310,-576.92 310,-576.92 388,-576.92 388,-576.92 391,-576.92 394,-579.92 394,-582.92 394,-582.92 394,-588.92 394,-588.92 394,-591.92 391,-594.92 388,-594.92"/>
<text text-anchor="start" x="312" y="-583.72" font-family="Helvetica,sans-Serif" font-size="9.00">mapper.module.ts</text>
</a>
</g>
</g>
<!-- src/modules/search.module.ts&#45;&gt;src/modules/mapper.module.ts -->
<g id="edge28" class="edge">
<title>src/modules/search.module.ts&#45;&gt;src/modules/mapper.module.ts</title>
<path fill="none" stroke="#000000" stroke-width="2" stroke-opacity="0.200000" d="M259.17,-585.92C271.38,-585.92 284.84,-585.92 297.51,-585.92"/>
<polygon fill="#000000" fill-opacity="0.200000" stroke="#000000" stroke-width="2" stroke-opacity="0.200000" points="297.65,-588.02 303.65,-585.92 297.65,-583.82 297.65,-588.02"/>
</g>
<!-- src/modules/mapper.module.ts&#45;&gt;src/dataAccess/entities/doctor.entity.ts -->
<g id="edge21" class="edge">
<title>src/modules/mapper.module.ts&#45;&gt;src/dataAccess/entities/doctor.entity.ts</title>
<path fill="none" stroke="#000000" stroke-width="2" stroke-opacity="0.200000" d="M350.36,-595.03C352.04,-623.62 361.53,-711.76 415,-747.92 437.87,-763.39 643.29,-766.73 663.5,-747.92 681.6,-731.07 655.47,-655.75 671.5,-636.92 676.83,-630.66 684.23,-626.75 692.11,-624.35"/>
<polygon fill="#000000" fill-opacity="0.200000" stroke="#000000" stroke-width="2" stroke-opacity="0.200000" points="692.9,-626.32 698.2,-622.8 691.86,-622.25 692.9,-626.32"/>
</g>
<!-- src/modules/mapper.module.ts&#45;&gt;src/dataAccess/entities/doctorSpecialty.entity.ts -->
<g id="edge22" class="edge">
<title>src/modules/mapper.module.ts&#45;&gt;src/dataAccess/entities/doctorSpecialty.entity.ts</title>
<path fill="none" stroke="#000000" stroke-width="2" stroke-opacity="0.200000" d="M350.14,-595.15C351.14,-624.98 358.8,-719.08 415,-757.92 437.71,-773.62 643.14,-776.57 663.5,-757.92 678.47,-744.21 658.22,-682.27 671.5,-666.92 672.36,-665.92 673.28,-664.99 674.24,-664.11"/>
<polygon fill="#000000" fill-opacity="0.200000" stroke="#000000" stroke-width="2" stroke-opacity="0.200000" points="675.91,-665.47 679.39,-660.16 673.35,-662.14 675.91,-665.47"/>
</g>
<!-- src/modules/mapper.module.ts&#45;&gt;src/dataAccess/entities/specialty.entity.ts -->
<g id="edge23" class="edge">
<title>src/modules/mapper.module.ts&#45;&gt;src/dataAccess/entities/specialty.entity.ts</title>
<path fill="none" stroke="#000000" stroke-width="2" stroke-opacity="0.200000" d="M349.93,-595.23C350.27,-626.24 356.03,-726.36 415,-767.92 505.28,-831.54 563.51,-814.82 663.5,-767.92 695.02,-753.13 717.46,-716.87 728.08,-696.47"/>
<polygon fill="#000000" fill-opacity="0.200000" stroke="#000000" stroke-width="2" stroke-opacity="0.200000" points="730.05,-697.23 730.88,-690.93 726.3,-695.34 730.05,-697.23"/>
</g>
<!-- src/modules/mapper.module.ts&#45;&gt;src/dataAccess/mapper/doctor.mapper.ts -->
<g id="edge24" class="edge">
<title>src/modules/mapper.module.ts&#45;&gt;src/dataAccess/mapper/doctor.mapper.ts</title>
<path fill="none" stroke="#000000" stroke-width="2" stroke-opacity="0.200000" d="M368,-594.95C390.46,-606.23 428.94,-625.54 453.79,-638.02"/>
<polygon fill="#000000" fill-opacity="0.200000" stroke="#000000" stroke-width="2" stroke-opacity="0.200000" points="452.88,-639.91 459.18,-640.72 454.76,-636.15 452.88,-639.91"/>
</g>
<!-- src/modules/mapper.module.ts&#45;&gt;src/dataAccess/mapper/specialty.mapper -->
<g id="edge25" class="edge">
<title>src/modules/mapper.module.ts&#45;&gt;src/dataAccess/mapper/specialty.mapper</title>
<path fill="none" stroke="#000000" stroke-width="2" stroke-opacity="0.200000" d="M354.88,-595.13C364.21,-611.81 386.24,-646.93 415,-664.92 419.42,-667.68 424.31,-669.94 429.35,-671.78"/>
<polygon fill="#000000" fill-opacity="0.200000" stroke="#000000" stroke-width="2" stroke-opacity="0.200000" points="428.96,-673.86 435.31,-673.75 430.27,-669.87 428.96,-673.86"/>
</g>
</g>
</svg>
