<?xml version="1.0" encoding="UTF-8" standalone="no"?>
<!DOCTYPE svg PUBLIC "-//W3C//DTD SVG 1.1//EN"
 "http://www.w3.org/Graphics/SVG/1.1/DTD/svg11.dtd">
<!-- Generated by graphviz version 2.43.0 (0)
 -->
<!-- Title: dependency&#45;cruiser output Pages: 1 -->
<svg width="817pt" height="675pt"
 viewBox="0.00 0.00 816.50 674.57" xmlns="http://www.w3.org/2000/svg" xmlns:xlink="http://www.w3.org/1999/xlink">
<g id="graph0" class="graph" transform="scale(1 1) rotate(0) translate(4 670.57)">
<title>dependency&#45;cruiser output</title>
<polygon fill="white" stroke="transparent" points="-4,4 -4,-670.57 812.5,-670.57 812.5,4 -4,4"/>
<g id="clust1" class="cluster">
<title>cluster_src</title>
<path fill="#ffffff" stroke="black" stroke-width="2" d="M20,-24.57C20,-24.57 788.5,-24.57 788.5,-24.57 794.5,-24.57 800.5,-30.57 800.5,-36.57 800.5,-36.57 800.5,-646.57 800.5,-646.57 800.5,-652.57 794.5,-658.57 788.5,-658.57 788.5,-658.57 20,-658.57 20,-658.57 14,-658.57 8,-652.57 8,-646.57 8,-646.57 8,-36.57 8,-36.57 8,-30.57 14,-24.57 20,-24.57"/>
<text text-anchor="middle" x="404.25" y="-647.37" font-family="Helvetica,sans-Serif" font-weight="bold" font-size="9.00">src</text>
</g>
<g id="clust2" class="cluster">
<title>cluster_src/dataAccess</title>
<path fill="#ffffff" stroke="black" stroke-width="2" d="M416,-380.57C416,-380.57 780.5,-380.57 780.5,-380.57 786.5,-380.57 792.5,-386.57 792.5,-392.57 792.5,-392.57 792.5,-608.57 792.5,-608.57 792.5,-614.57 786.5,-620.57 780.5,-620.57 780.5,-620.57 416,-620.57 416,-620.57 410,-620.57 404,-614.57 404,-608.57 404,-608.57 404,-392.57 404,-392.57 404,-386.57 410,-380.57 416,-380.57"/>
<text text-anchor="middle" x="598.25" y="-609.37" font-family="Helvetica,sans-Serif" font-weight="bold" font-size="9.00">dataAccess</text>
</g>
<g id="clust3" class="cluster">
<title>cluster_src/dataAccess/db</title>
<path fill="#ffffff" stroke="black" stroke-width="2" d="M553.5,-388.57C553.5,-388.57 635.5,-388.57 635.5,-388.57 641.5,-388.57 647.5,-394.57 647.5,-400.57 647.5,-400.57 647.5,-488.57 647.5,-488.57 647.5,-494.57 641.5,-500.57 635.5,-500.57 635.5,-500.57 553.5,-500.57 553.5,-500.57 547.5,-500.57 541.5,-494.57 541.5,-488.57 541.5,-488.57 541.5,-400.57 541.5,-400.57 541.5,-394.57 547.5,-388.57 553.5,-388.57"/>
<text text-anchor="middle" x="594.5" y="-489.37" font-family="Helvetica,sans-Serif" font-weight="bold" font-size="9.00">db</text>
</g>
<g id="clust4" class="cluster">
<title>cluster_src/dataAccess/entities</title>
<path fill="#ffffff" stroke="black" stroke-width="2" d="M667.5,-476.57C667.5,-476.57 772.5,-476.57 772.5,-476.57 778.5,-476.57 784.5,-482.57 784.5,-488.57 784.5,-488.57 784.5,-576.57 784.5,-576.57 784.5,-582.57 778.5,-588.57 772.5,-588.57 772.5,-588.57 667.5,-588.57 667.5,-588.57 661.5,-588.57 655.5,-582.57 655.5,-576.57 655.5,-576.57 655.5,-488.57 655.5,-488.57 655.5,-482.57 661.5,-476.57 667.5,-476.57"/>
<text text-anchor="middle" x="720" y="-577.37" font-family="Helvetica,sans-Serif" font-weight="bold" font-size="9.00">entities</text>
</g>
<g id="clust5" class="cluster">
<title>cluster_src/dataAccess/mapper</title>
<path fill="#ffffff" stroke="black" stroke-width="2" d="M424,-542.57C424,-542.57 619,-542.57 619,-542.57 625,-542.57 631,-548.57 631,-554.57 631,-554.57 631,-582.57 631,-582.57 631,-588.57 625,-594.57 619,-594.57 619,-594.57 424,-594.57 424,-594.57 418,-594.57 412,-588.57 412,-582.57 412,-582.57 412,-554.57 412,-554.57 412,-548.57 418,-542.57 424,-542.57"/>
<text text-anchor="middle" x="521.5" y="-583.37" font-family="Helvetica,sans-Serif" font-weight="bold" font-size="9.00">mapper</text>
</g>
<g id="clust6" class="cluster">
<title>cluster_src/dom</title>
<path fill="#ffffff" stroke="black" stroke-width="2" d="M279,-42.57C279,-42.57 521.5,-42.57 521.5,-42.57 527.5,-42.57 533.5,-48.57 533.5,-54.57 533.5,-54.57 533.5,-360.57 533.5,-360.57 533.5,-366.57 527.5,-372.57 521.5,-372.57 521.5,-372.57 279,-372.57 279,-372.57 273,-372.57 267,-366.57 267,-360.57 267,-360.57 267,-54.57 267,-54.57 267,-48.57 273,-42.57 279,-42.57"/>
<text text-anchor="middle" x="400.25" y="-361.37" font-family="Helvetica,sans-Serif" font-weight="bold" font-size="9.00">dom</text>
</g>
<g id="clust7" class="cluster">
<title>cluster_src/dom/domainClass</title>
<path fill="#ffffff" stroke="black" stroke-width="2" d="M316,-234.57C316,-234.57 370,-234.57 370,-234.57 376,-234.57 382,-240.57 382,-246.57 382,-246.57 382,-334.57 382,-334.57 382,-340.57 376,-346.57 370,-346.57 370,-346.57 316,-346.57 316,-346.57 310,-346.57 304,-340.57 304,-334.57 304,-334.57 304,-246.57 304,-246.57 304,-240.57 310,-234.57 316,-234.57"/>
<text text-anchor="middle" x="343" y="-335.37" font-family="Helvetica,sans-Serif" font-weight="bold" font-size="9.00">domainClass</text>
</g>
<g id="clust8" class="cluster">
<title>cluster_src/dom/search</title>
<path fill="#ffffff" stroke="black" stroke-width="2" d="M287,-50.57C287,-50.57 513.5,-50.57 513.5,-50.57 519.5,-50.57 525.5,-56.57 525.5,-62.57 525.5,-62.57 525.5,-214.57 525.5,-214.57 525.5,-220.57 519.5,-226.57 513.5,-226.57 513.5,-226.57 287,-226.57 287,-226.57 281,-226.57 275,-220.57 275,-214.57 275,-214.57 275,-62.57 275,-62.57 275,-56.57 281,-50.57 287,-50.57"/>
<text text-anchor="middle" x="400.25" y="-215.37" font-family="Helvetica,sans-Serif" font-weight="bold" font-size="9.00">search</text>
</g>
<g id="clust9" class="cluster">
<title>cluster_src/dom/search/controllers</title>
<path fill="#ffffff" stroke="black" stroke-width="2" d="M296,-148.57C296,-148.57 505.5,-148.57 505.5,-148.57 511.5,-148.57 517.5,-154.57 517.5,-160.57 517.5,-160.57 517.5,-188.57 517.5,-188.57 517.5,-194.57 511.5,-200.57 505.5,-200.57 505.5,-200.57 296,-200.57 296,-200.57 290,-200.57 284,-194.57 284,-188.57 284,-188.57 284,-160.57 284,-160.57 284,-154.57 290,-148.57 296,-148.57"/>
<text text-anchor="middle" x="400.75" y="-189.37" font-family="Helvetica,sans-Serif" font-weight="bold" font-size="9.00">controllers</text>
</g>
<g id="clust10" class="cluster">
<title>cluster_src/dom/search/services</title>
<path fill="#ffffff" stroke="black" stroke-width="2" d="M295,-58.57C295,-58.57 501,-58.57 501,-58.57 507,-58.57 513,-64.57 513,-70.57 513,-70.57 513,-128.57 513,-128.57 513,-134.57 507,-140.57 501,-140.57 501,-140.57 295,-140.57 295,-140.57 289,-140.57 283,-134.57 283,-128.57 283,-128.57 283,-70.57 283,-70.57 283,-64.57 289,-58.57 295,-58.57"/>
<text text-anchor="middle" x="398" y="-129.37" font-family="Helvetica,sans-Serif" font-weight="bold" font-size="9.00">services</text>
</g>
<g id="clust11" class="cluster">
<title>cluster_src/modules</title>
<path fill="#ffffff" stroke="black" stroke-width="2" d="M90,-542.57C90,-542.57 384,-542.57 384,-542.57 390,-542.57 396,-548.57 396,-554.57 396,-554.57 396,-582.57 396,-582.57 396,-588.57 390,-594.57 384,-594.57 384,-594.57 90,-594.57 90,-594.57 84,-594.57 78,-588.57 78,-582.57 78,-582.57 78,-554.57 78,-554.57 78,-548.57 84,-542.57 90,-542.57"/>
<text text-anchor="middle" x="237" y="-583.37" font-family="Helvetica,sans-Serif" font-weight="bold" font-size="9.00">modules</text>
</g>
<!-- src/dataAccess/db/db.connection.ts -->
<g id="node1" class="node">
<title>src/dataAccess/db/db.connection.ts</title>
<g id="a_node1"><a xlink:href="src/dataAccess/db/db.connection.ts" xlink:title="db.connection.ts">
<path fill="#ccffcc" stroke="black" d="M630,-474.57C630,-474.57 559,-474.57 559,-474.57 556,-474.57 553,-471.57 553,-468.57 553,-468.57 553,-462.57 553,-462.57 553,-459.57 556,-456.57 559,-456.57 559,-456.57 630,-456.57 630,-456.57 633,-456.57 636,-459.57 636,-462.57 636,-462.57 636,-468.57 636,-468.57 636,-471.57 633,-474.57 630,-474.57"/>
<text text-anchor="start" x="561" y="-463.37" font-family="Helvetica,sans-Serif" font-size="9.00">db.connection.ts</text>
</a>
</g>
</g>
<!-- src/dataAccess/db/psql.connection -->
<g id="node2" class="node">
<title>src/dataAccess/db/psql.connection</title>
<g id="a_node2"><a xlink:title="psql.connection">
<path fill="#ffffcc" stroke="red" d="M629,-444.57C629,-444.57 560,-444.57 560,-444.57 557,-444.57 554,-441.57 554,-438.57 554,-438.57 554,-432.57 554,-432.57 554,-429.57 557,-426.57 560,-426.57 560,-426.57 629,-426.57 629,-426.57 632,-426.57 635,-429.57 635,-432.57 635,-432.57 635,-438.57 635,-438.57 635,-441.57 632,-444.57 629,-444.57"/>
<text text-anchor="start" x="562" y="-433.37" font-family="Helvetica,sans-Serif" font-size="9.00" fill="red">psql.connection</text>
</a>
</g>
</g>
<!-- src/dataAccess/db/psql.connection.ts -->
<g id="node3" class="node">
<title>src/dataAccess/db/psql.connection.ts</title>
<g id="a_node3"><a xlink:href="src/dataAccess/db/psql.connection.ts" xlink:title="psql.connection.ts">
<path fill="#ddfeff" stroke="black" d="M633.5,-414.57C633.5,-414.57 555.5,-414.57 555.5,-414.57 552.5,-414.57 549.5,-411.57 549.5,-408.57 549.5,-408.57 549.5,-402.57 549.5,-402.57 549.5,-399.57 552.5,-396.57 555.5,-396.57 555.5,-396.57 633.5,-396.57 633.5,-396.57 636.5,-396.57 639.5,-399.57 639.5,-402.57 639.5,-402.57 639.5,-408.57 639.5,-408.57 639.5,-411.57 636.5,-414.57 633.5,-414.57"/>
<text text-anchor="start" x="557.5" y="-403.37" font-family="Helvetica,sans-Serif" font-size="9.00">psql.connection.ts</text>
</a>
</g>
</g>
<!-- src/dataAccess/entities/doctor.entity.ts -->
<g id="node4" class="node">
<title>src/dataAccess/entities/doctor.entity.ts</title>
<g id="a_node4"><a xlink:href="src/dataAccess/entities/doctor.entity.ts" xlink:title="doctor.entity.ts">
<path fill="#ddfeff" stroke="black" d="M751.5,-502.57C751.5,-502.57 688.5,-502.57 688.5,-502.57 685.5,-502.57 682.5,-499.57 682.5,-496.57 682.5,-496.57 682.5,-490.57 682.5,-490.57 682.5,-487.57 685.5,-484.57 688.5,-484.57 688.5,-484.57 751.5,-484.57 751.5,-484.57 754.5,-484.57 757.5,-487.57 757.5,-490.57 757.5,-490.57 757.5,-496.57 757.5,-496.57 757.5,-499.57 754.5,-502.57 751.5,-502.57"/>
<text text-anchor="start" x="690.5" y="-491.37" font-family="Helvetica,sans-Serif" font-size="9.00">doctor.entity.ts</text>
</a>
</g>
</g>
<!-- src/dataAccess/db/psql.connection.ts&#45;&gt;src/dataAccess/entities/doctor.entity.ts -->
<g id="edge1" class="edge">
<title>src/dataAccess/db/psql.connection.ts&#45;&gt;src/dataAccess/entities/doctor.entity.ts</title>
<path fill="none" stroke="#000000" stroke-width="2" stroke-opacity="0.200000" d="M635.03,-414.6C639.38,-416.28 643.63,-418.25 647.5,-420.57 673.23,-435.93 696.13,-462.8 708.74,-479.3"/>
<polygon fill="#000000" fill-opacity="0.200000" stroke="#000000" stroke-width="2" stroke-opacity="0.200000" points="707.33,-480.93 712.61,-484.47 710.69,-478.41 707.33,-480.93"/>
</g>
<!-- src/dataAccess/entities/doctorSpecialty.entity.ts -->
<g id="node5" class="node">
<title>src/dataAccess/entities/doctorSpecialty.entity.ts</title>
<g id="a_node5"><a xlink:href="src/dataAccess/entities/doctorSpecialty.entity.ts" xlink:title="doctorSpecialty.entity.ts">
<path fill="#ddfeff" stroke="black" d="M770.5,-532.57C770.5,-532.57 669.5,-532.57 669.5,-532.57 666.5,-532.57 663.5,-529.57 663.5,-526.57 663.5,-526.57 663.5,-520.57 663.5,-520.57 663.5,-517.57 666.5,-514.57 669.5,-514.57 669.5,-514.57 770.5,-514.57 770.5,-514.57 773.5,-514.57 776.5,-517.57 776.5,-520.57 776.5,-520.57 776.5,-526.57 776.5,-526.57 776.5,-529.57 773.5,-532.57 770.5,-532.57"/>
<text text-anchor="start" x="671.5" y="-521.37" font-family="Helvetica,sans-Serif" font-size="9.00">doctorSpecialty.entity.ts</text>
</a>
</g>
</g>
<!-- src/dataAccess/db/psql.connection.ts&#45;&gt;src/dataAccess/entities/doctorSpecialty.entity.ts -->
<g id="edge2" class="edge">
<title>src/dataAccess/db/psql.connection.ts&#45;&gt;src/dataAccess/entities/doctorSpecialty.entity.ts</title>
<path fill="none" stroke="#000000" stroke-width="2" stroke-opacity="0.200000" d="M639.93,-413.98C642.77,-415.79 645.35,-417.96 647.5,-420.57 660,-435.71 642.63,-493.74 655.5,-508.57 656.36,-509.56 657.28,-510.5 658.24,-511.37"/>
<polygon fill="#000000" fill-opacity="0.200000" stroke="#000000" stroke-width="2" stroke-opacity="0.200000" points="657.36,-513.34 663.4,-515.32 659.91,-510.01 657.36,-513.34"/>
</g>
<!-- src/dataAccess/entities/specialty.entity.ts -->
<g id="node6" class="node">
<title>src/dataAccess/entities/specialty.entity.ts</title>
<g id="a_node6"><a xlink:href="src/dataAccess/entities/specialty.entity.ts" xlink:title="specialty.entity.ts">
<path fill="#ddfeff" stroke="black" d="M757,-562.57C757,-562.57 683,-562.57 683,-562.57 680,-562.57 677,-559.57 677,-556.57 677,-556.57 677,-550.57 677,-550.57 677,-547.57 680,-544.57 683,-544.57 683,-544.57 757,-544.57 757,-544.57 760,-544.57 763,-547.57 763,-550.57 763,-550.57 763,-556.57 763,-556.57 763,-559.57 760,-562.57 757,-562.57"/>
<text text-anchor="start" x="685" y="-551.37" font-family="Helvetica,sans-Serif" font-size="9.00">specialty.entity.ts</text>
</a>
</g>
</g>
<!-- src/dataAccess/db/psql.connection.ts&#45;&gt;src/dataAccess/entities/specialty.entity.ts -->
<g id="edge3" class="edge">
<title>src/dataAccess/db/psql.connection.ts&#45;&gt;src/dataAccess/entities/specialty.entity.ts</title>
<path fill="none" stroke="#000000" stroke-width="2" stroke-opacity="0.200000" d="M639.53,-413.63C642.54,-415.5 645.26,-417.79 647.5,-420.57 664,-441.02 638.5,-518.52 655.5,-538.57 659.62,-543.43 665,-546.87 670.88,-549.3"/>
<polygon fill="#000000" fill-opacity="0.200000" stroke="#000000" stroke-width="2" stroke-opacity="0.200000" points="670.54,-551.4 676.9,-551.39 671.92,-547.44 670.54,-551.4"/>
</g>
<!-- src/dataAccess/mapper/doctor.mapper.ts -->
<g id="node7" class="node">
<title>src/dataAccess/mapper/doctor.mapper.ts</title>
<g id="a_node7"><a xlink:href="src/dataAccess/mapper/doctor.mapper.ts" xlink:title="doctor.mapper.ts">
<path fill="#ddfeff" stroke="black" d="M499,-568.57C499,-568.57 426,-568.57 426,-568.57 423,-568.57 420,-565.57 420,-562.57 420,-562.57 420,-556.57 420,-556.57 420,-553.57 423,-550.57 426,-550.57 426,-550.57 499,-550.57 499,-550.57 502,-550.57 505,-553.57 505,-556.57 505,-556.57 505,-562.57 505,-562.57 505,-565.57 502,-568.57 499,-568.57"/>
<text text-anchor="start" x="428" y="-557.37" font-family="Helvetica,sans-Serif" font-size="9.00">doctor.mapper.ts</text>
</a>
</g>
</g>
<!-- src/dataAccess/mapper/doctor.mapper.ts&#45;&gt;src/dataAccess/db/psql.connection -->
<g id="edge8" class="edge">
<title>src/dataAccess/mapper/doctor.mapper.ts&#45;&gt;src/dataAccess/db/psql.connection</title>
<path fill="none" stroke="#000000" stroke-width="2" stroke-opacity="0.200000" d="M467.46,-550.37C477,-529.36 503.3,-477.56 541.5,-450.57 543.61,-449.07 545.88,-447.72 548.23,-446.51"/>
<polygon fill="#000000" fill-opacity="0.200000" stroke="#000000" stroke-width="2" stroke-opacity="0.200000" points="549.29,-448.33 553.86,-443.92 547.53,-444.52 549.29,-448.33"/>
</g>
<!-- src/dataAccess/mapper/doctor.mapper.ts&#45;&gt;src/dataAccess/entities/doctor.entity.ts -->
<g id="edge4" class="edge">
<title>src/dataAccess/mapper/doctor.mapper.ts&#45;&gt;src/dataAccess/entities/doctor.entity.ts</title>
<path fill="none" stroke="#000000" stroke-width="2" stroke-opacity="0.200000" d="M479.73,-550.52C495.17,-542.3 519.27,-530.44 541.5,-523.57 565.95,-516 631.78,-505.84 676.03,-499.49"/>
<polygon fill="#000000" fill-opacity="0.200000" stroke="#000000" stroke-width="2" stroke-opacity="0.200000" points="676.48,-501.55 682.12,-498.63 675.88,-497.39 676.48,-501.55"/>
</g>
<!-- src/dataAccess/mapper/doctor.mapper.ts&#45;&gt;src/dataAccess/entities/doctorSpecialty.entity.ts -->
<g id="edge5" class="edge">
<title>src/dataAccess/mapper/doctor.mapper.ts&#45;&gt;src/dataAccess/entities/doctorSpecialty.entity.ts</title>
<path fill="none" stroke="#000000" stroke-width="2" stroke-opacity="0.200000" d="M492.12,-550.54C506.75,-546.27 524.92,-541.47 541.5,-538.57 579.5,-531.9 622.61,-528.17 656.82,-526.1"/>
<polygon fill="#000000" fill-opacity="0.200000" stroke="#000000" stroke-width="2" stroke-opacity="0.200000" points="657.24,-528.17 663.11,-525.73 656.99,-523.98 657.24,-528.17"/>
</g>
<!-- src/dataAccess/mapper/doctor.mapper.ts&#45;&gt;src/dataAccess/entities/specialty.entity.ts -->
<g id="edge6" class="edge">
<title>src/dataAccess/mapper/doctor.mapper.ts&#45;&gt;src/dataAccess/entities/specialty.entity.ts</title>
<path fill="none" stroke="#000000" stroke-width="2" stroke-opacity="0.200000" d="M502.57,-550.55C514.95,-548.09 528.73,-545.78 541.5,-544.57 588.4,-540.1 600.48,-541.62 647.5,-544.57 654.91,-545.03 662.74,-545.76 670.38,-546.62"/>
<polygon fill="#000000" fill-opacity="0.200000" stroke="#000000" stroke-width="2" stroke-opacity="0.200000" points="670.54,-548.75 676.74,-547.36 671.02,-544.58 670.54,-548.75"/>
</g>
<!-- src/dataAccess/mapper/mapper.ts -->
<g id="node8" class="node">
<title>src/dataAccess/mapper/mapper.ts</title>
<g id="a_node8"><a xlink:href="src/dataAccess/mapper/mapper.ts" xlink:title="mapper.ts">
<path fill="#ddfeff" stroke="black" d="M617,-568.57C617,-568.57 572,-568.57 572,-568.57 569,-568.57 566,-565.57 566,-562.57 566,-562.57 566,-556.57 566,-556.57 566,-553.57 569,-550.57 572,-550.57 572,-550.57 617,-550.57 617,-550.57 620,-550.57 623,-553.57 623,-556.57 623,-556.57 623,-562.57 623,-562.57 623,-565.57 620,-568.57 617,-568.57"/>
<text text-anchor="start" x="574" y="-557.37" font-family="Helvetica,sans-Serif" font-size="9.00">mapper.ts</text>
</a>
</g>
</g>
<!-- src/dataAccess/mapper/doctor.mapper.ts&#45;&gt;src/dataAccess/mapper/mapper.ts -->
<g id="edge7" class="edge">
<title>src/dataAccess/mapper/doctor.mapper.ts&#45;&gt;src/dataAccess/mapper/mapper.ts</title>
<path fill="none" stroke="#000000" stroke-width="2" stroke-opacity="0.200000" d="M505.35,-559.57C522.78,-559.57 542.76,-559.57 559.29,-559.57"/>
<polygon fill="#000000" fill-opacity="0.200000" stroke="#000000" stroke-width="2" stroke-opacity="0.200000" points="559.68,-561.67 565.68,-559.57 559.68,-557.47 559.68,-561.67"/>
</g>
<!-- src/dom/domainClass/doctor.ts -->
<g id="node9" class="node">
<title>src/dom/domainClass/doctor.ts</title>
<g id="a_node9"><a xlink:href="src/dom/domainClass/doctor.ts" xlink:title="doctor.ts">
<path fill="#ccffcc" stroke="black" d="M364,-320.57C364,-320.57 322,-320.57 322,-320.57 319,-320.57 316,-317.57 316,-314.57 316,-314.57 316,-308.57 316,-308.57 316,-305.57 319,-302.57 322,-302.57 322,-302.57 364,-302.57 364,-302.57 367,-302.57 370,-305.57 370,-308.57 370,-308.57 370,-314.57 370,-314.57 370,-317.57 367,-320.57 364,-320.57"/>
<text text-anchor="start" x="325.5" y="-309.37" font-family="Helvetica,sans-Serif" font-size="9.00">doctor.ts</text>
</a>
</g>
</g>
<!-- src/dom/domainClass/enums.ts -->
<g id="node10" class="node">
<title>src/dom/domainClass/enums.ts</title>
<g id="a_node10"><a xlink:href="src/dom/domainClass/enums.ts" xlink:title="enums.ts">
<path fill="#ccffcc" stroke="black" d="M364,-290.57C364,-290.57 322,-290.57 322,-290.57 319,-290.57 316,-287.57 316,-284.57 316,-284.57 316,-278.57 316,-278.57 316,-275.57 319,-272.57 322,-272.57 322,-272.57 364,-272.57 364,-272.57 367,-272.57 370,-275.57 370,-278.57 370,-278.57 370,-284.57 370,-284.57 370,-287.57 367,-290.57 364,-290.57"/>
<text text-anchor="start" x="324.5" y="-279.37" font-family="Helvetica,sans-Serif" font-size="9.00">enums.ts</text>
</a>
</g>
</g>
<!-- src/dom/domainClass/specialty.ts -->
<g id="node11" class="node">
<title>src/dom/domainClass/specialty.ts</title>
<g id="a_node11"><a xlink:href="src/dom/domainClass/specialty.ts" xlink:title="specialty.ts">
<path fill="#ccffcc" stroke="black" d="M368,-260.57C368,-260.57 318,-260.57 318,-260.57 315,-260.57 312,-257.57 312,-254.57 312,-254.57 312,-248.57 312,-248.57 312,-245.57 315,-242.57 318,-242.57 318,-242.57 368,-242.57 368,-242.57 371,-242.57 374,-245.57 374,-248.57 374,-248.57 374,-254.57 374,-254.57 374,-257.57 371,-260.57 368,-260.57"/>
<text text-anchor="start" x="320" y="-249.37" font-family="Helvetica,sans-Serif" font-size="9.00">specialty.ts</text>
</a>
</g>
</g>
<!-- src/dom/search/controllers/search.controller.ts -->
<g id="node12" class="node">
<title>src/dom/search/controllers/search.controller.ts</title>
<g id="a_node12"><a xlink:href="src/dom/search/controllers/search.controller.ts" xlink:title="search.controller.ts">
<path fill="#ddfeff" stroke="black" d="M503.5,-174.57C503.5,-174.57 421.5,-174.57 421.5,-174.57 418.5,-174.57 415.5,-171.57 415.5,-168.57 415.5,-168.57 415.5,-162.57 415.5,-162.57 415.5,-159.57 418.5,-156.57 421.5,-156.57 421.5,-156.57 503.5,-156.57 503.5,-156.57 506.5,-156.57 509.5,-159.57 509.5,-162.57 509.5,-162.57 509.5,-168.57 509.5,-168.57 509.5,-171.57 506.5,-174.57 503.5,-174.57"/>
<text text-anchor="start" x="423.5" y="-163.37" font-family="Helvetica,sans-Serif" font-size="9.00">search.controller.ts</text>
</a>
</g>
</g>
<!-- src/dom/search/controllers/specialty.controller.ts -->
<g id="node13" class="node">
<title>src/dom/search/controllers/specialty.controller.ts</title>
<g id="a_node13"><a xlink:href="src/dom/search/controllers/specialty.controller.ts" xlink:title="specialty.controller.ts">
<path fill="#ddfeff" stroke="black" d="M388,-174.57C388,-174.57 298,-174.57 298,-174.57 295,-174.57 292,-171.57 292,-168.57 292,-168.57 292,-162.57 292,-162.57 292,-159.57 295,-156.57 298,-156.57 298,-156.57 388,-156.57 388,-156.57 391,-156.57 394,-159.57 394,-162.57 394,-162.57 394,-168.57 394,-168.57 394,-171.57 391,-174.57 388,-174.57"/>
<text text-anchor="start" x="300" y="-163.37" font-family="Helvetica,sans-Serif" font-size="9.00">specialty.controller.ts</text>
</a>
</g>
</g>
<!-- src/dom/search/controllers/specialty.controller.ts&#45;&gt;src/dom/search/controllers/search.controller.ts -->
<g id="edge9" class="edge">
<title>src/dom/search/controllers/specialty.controller.ts&#45;&gt;src/dom/search/controllers/search.controller.ts</title>
<path fill="none" stroke="#000000" stroke-width="2" stroke-opacity="0.200000" d="M394.17,-165.57C399.08,-165.57 404.08,-165.57 409.01,-165.57"/>
<polygon fill="#000000" fill-opacity="0.200000" stroke="#000000" stroke-width="2" stroke-opacity="0.200000" points="409.22,-167.67 415.22,-165.57 409.22,-163.47 409.22,-167.67"/>
</g>
<!-- src/dom/search/services/bySpecialty.service.ts -->
<g id="node14" class="node">
<title>src/dom/search/services/bySpecialty.service.ts</title>
<g id="a_node14"><a xlink:href="src/dom/search/services/bySpecialty.service.ts" xlink:title="bySpecialty.service.ts">
<path fill="#ddfeff" stroke="black" d="M389,-114.57C389,-114.57 297,-114.57 297,-114.57 294,-114.57 291,-111.57 291,-108.57 291,-108.57 291,-102.57 291,-102.57 291,-99.57 294,-96.57 297,-96.57 297,-96.57 389,-96.57 389,-96.57 392,-96.57 395,-99.57 395,-102.57 395,-102.57 395,-108.57 395,-108.57 395,-111.57 392,-114.57 389,-114.57"/>
<text text-anchor="start" x="299" y="-103.37" font-family="Helvetica,sans-Serif" font-size="9.00">bySpecialty.service.ts</text>
</a>
</g>
</g>
<!-- src/dom/search/services/bySpecialty.service.ts&#45;&gt;src/dataAccess/mapper/doctor.mapper.ts -->
<g id="edge10" class="edge">
<title>src/dom/search/services/bySpecialty.service.ts&#45;&gt;src/dataAccess/mapper/doctor.mapper.ts</title>
<path fill="none" stroke="#000000" stroke-width="2" stroke-opacity="0.200000" d="M362.18,-114.71C373.82,-121.56 388.16,-132.07 396,-145.57 409.07,-168.07 400.15,-177.83 404,-203.57 423.79,-335.73 450.55,-495.01 458.9,-544.29"/>
<polygon fill="#000000" fill-opacity="0.200000" stroke="#000000" stroke-width="2" stroke-opacity="0.200000" points="456.88,-544.94 459.96,-550.5 461.02,-544.23 456.88,-544.94"/>
</g>
<!-- src/dom/search/services/search.service.ts -->
<g id="node15" class="node">
<title>src/dom/search/services/search.service.ts</title>
<g id="a_node15"><a xlink:href="src/dom/search/services/search.service.ts" xlink:title="search.service.ts">
<path fill="#ddfeff" stroke="black" d="M499,-114.57C499,-114.57 426,-114.57 426,-114.57 423,-114.57 420,-111.57 420,-108.57 420,-108.57 420,-102.57 420,-102.57 420,-99.57 423,-96.57 426,-96.57 426,-96.57 499,-96.57 499,-96.57 502,-96.57 505,-99.57 505,-102.57 505,-102.57 505,-108.57 505,-108.57 505,-111.57 502,-114.57 499,-114.57"/>
<text text-anchor="start" x="428" y="-103.37" font-family="Helvetica,sans-Serif" font-size="9.00">search.service.ts</text>
</a>
</g>
</g>
<!-- src/dom/search/services/bySpecialty.service.ts&#45;&gt;src/dom/search/services/search.service.ts -->
<g id="edge11" class="edge">
<title>src/dom/search/services/bySpecialty.service.ts&#45;&gt;src/dom/search/services/search.service.ts</title>
<path fill="none" stroke="#000000" stroke-width="2" stroke-opacity="0.200000" d="M395.2,-105.57C401.41,-105.57 407.74,-105.57 413.9,-105.57"/>
<polygon fill="#000000" fill-opacity="0.200000" stroke="#000000" stroke-width="2" stroke-opacity="0.200000" points="413.99,-107.67 419.99,-105.57 413.99,-103.47 413.99,-107.67"/>
</g>
<!-- src/dom/search/services/repository.ts -->
<g id="node16" class="node">
<title>src/dom/search/services/repository.ts</title>
<g id="a_node16"><a xlink:href="src/dom/search/services/repository.ts" xlink:title="repository.ts">
<path fill="#ccffcc" stroke="black" d="M370,-84.57C370,-84.57 316,-84.57 316,-84.57 313,-84.57 310,-81.57 310,-78.57 310,-78.57 310,-72.57 310,-72.57 310,-69.57 313,-66.57 316,-66.57 316,-66.57 370,-66.57 370,-66.57 373,-66.57 376,-69.57 376,-72.57 376,-72.57 376,-78.57 376,-78.57 376,-81.57 373,-84.57 370,-84.57"/>
<text text-anchor="start" x="318" y="-73.37" font-family="Helvetica,sans-Serif" font-size="9.00">repository.ts</text>
</a>
</g>
</g>
<!-- src/main.ts -->
<g id="node17" class="node">
<title>src/main.ts</title>
<g id="a_node17"><a xlink:href="src/main.ts" xlink:title="main.ts">
<path fill="#ddfeff" stroke="black" d="M64,-568.57C64,-568.57 22,-568.57 22,-568.57 19,-568.57 16,-565.57 16,-562.57 16,-562.57 16,-556.57 16,-556.57 16,-553.57 19,-550.57 22,-550.57 22,-550.57 64,-550.57 64,-550.57 67,-550.57 70,-553.57 70,-556.57 70,-556.57 70,-562.57 70,-562.57 70,-565.57 67,-568.57 64,-568.57"/>
<text text-anchor="start" x="28" y="-557.37" font-family="Helvetica,sans-Serif" font-size="9.00">main.ts</text>
</a>
</g>
</g>
<!-- src/modules/app.module.ts -->
<g id="node18" class="node">
<title>src/modules/app.module.ts</title>
<g id="a_node18"><a xlink:href="src/modules/app.module.ts" xlink:title="app.module.ts">
<path fill="#ddfeff" stroke="black" d="M154,-568.57C154,-568.57 92,-568.57 92,-568.57 89,-568.57 86,-565.57 86,-562.57 86,-562.57 86,-556.57 86,-556.57 86,-553.57 89,-550.57 92,-550.57 92,-550.57 154,-550.57 154,-550.57 157,-550.57 160,-553.57 160,-556.57 160,-556.57 160,-562.57 160,-562.57 160,-565.57 157,-568.57 154,-568.57"/>
<text text-anchor="start" x="94" y="-557.37" font-family="Helvetica,sans-Serif" font-size="9.00">app.module.ts</text>
</a>
</g>
</g>
<!-- src/main.ts&#45;&gt;src/modules/app.module.ts -->
<g id="edge12" class="edge">
<title>src/main.ts&#45;&gt;src/modules/app.module.ts</title>
<path fill="none" stroke="#000000" stroke-width="2" stroke-opacity="0.200000" d="M70.41,-559.57C73.35,-559.57 76.39,-559.57 79.47,-559.57"/>
<polygon fill="#000000" fill-opacity="0.200000" stroke="#000000" stroke-width="2" stroke-opacity="0.200000" points="79.8,-561.67 85.8,-559.57 79.8,-557.47 79.8,-561.67"/>
</g>
<!-- src/modules/app.module.ts&#45;&gt;src/dataAccess/db/psql.connection.ts -->
<g id="edge13" class="edge">
<title>src/modules/app.module.ts&#45;&gt;src/dataAccess/db/psql.connection.ts</title>
<path fill="none" stroke="#000000" stroke-width="2" stroke-opacity="0.200000" d="M125.11,-550.46C132.93,-487.69 182.1,-119.73 267,-55.57 361.49,15.85 442.95,20.78 533.5,-55.57 585.68,-99.56 592.48,-329.31 593.37,-390.55"/>
<polygon fill="#000000" fill-opacity="0.200000" stroke="#000000" stroke-width="2" stroke-opacity="0.200000" points="591.27,-390.58 593.44,-396.56 595.47,-390.53 591.27,-390.58"/>
</g>
<!-- src/modules/search.module.ts -->
<g id="node19" class="node">
<title>src/modules/search.module.ts</title>
<g id="a_node19"><a xlink:href="src/modules/search.module.ts" xlink:title="search.module.ts">
<path fill="#ddfeff" stroke="black" d="M253,-568.57C253,-568.57 179,-568.57 179,-568.57 176,-568.57 173,-565.57 173,-562.57 173,-562.57 173,-556.57 173,-556.57 173,-553.57 176,-550.57 179,-550.57 179,-550.57 253,-550.57 253,-550.57 256,-550.57 259,-553.57 259,-556.57 259,-556.57 259,-562.57 259,-562.57 259,-565.57 256,-568.57 253,-568.57"/>
<text text-anchor="start" x="181" y="-557.37" font-family="Helvetica,sans-Serif" font-size="9.00">search.module.ts</text>
</a>
</g>
</g>
<!-- src/modules/app.module.ts&#45;&gt;src/modules/search.module.ts -->
<g id="edge14" class="edge">
<title>src/modules/app.module.ts&#45;&gt;src/modules/search.module.ts</title>
<path fill="none" stroke="#000000" stroke-width="2" stroke-opacity="0.200000" d="M160.23,-559.57C162.31,-559.57 164.42,-559.57 166.53,-559.57"/>
<polygon fill="#000000" fill-opacity="0.200000" stroke="#000000" stroke-width="2" stroke-opacity="0.200000" points="166.89,-561.67 172.89,-559.57 166.89,-557.47 166.89,-561.67"/>
</g>
<!-- src/modules/search.module.ts&#45;&gt;src/dom/search/controllers/specialty.controller.ts -->
<g id="edge19" class="edge">
<title>src/modules/search.module.ts&#45;&gt;src/dom/search/controllers/specialty.controller.ts</title>
<path fill="none" stroke="#000000" stroke-width="2" stroke-opacity="0.200000" d="M217.55,-550.41C220.52,-503.4 235.57,-289.06 267,-231.57 279.59,-208.53 303.51,-189.67 320.96,-178.09"/>
<polygon fill="#000000" fill-opacity="0.200000" stroke="#000000" stroke-width="2" stroke-opacity="0.200000" points="322.25,-179.76 326.15,-174.73 319.97,-176.23 322.25,-179.76"/>
</g>
<!-- src/modules/search.module.ts&#45;&gt;src/dom/search/services/bySpecialty.service.ts -->
<g id="edge20" class="edge">
<title>src/modules/search.module.ts&#45;&gt;src/dom/search/services/bySpecialty.service.ts</title>
<path fill="none" stroke="#000000" stroke-width="2" stroke-opacity="0.200000" d="M216.99,-550.47C217.06,-496.13 219.75,-214.55 267,-145.57 276.05,-132.35 290.92,-123.14 305.04,-116.93"/>
<polygon fill="#000000" fill-opacity="0.200000" stroke="#000000" stroke-width="2" stroke-opacity="0.200000" points="305.88,-118.86 310.61,-114.61 304.26,-114.98 305.88,-118.86"/>
</g>
<!-- src/modules/mapper.module.ts -->
<g id="node20" class="node">
<title>src/modules/mapper.module.ts</title>
<g id="a_node20"><a xlink:href="src/modules/mapper.module.ts" xlink:title="mapper.module.ts">
<path fill="#ddfeff" stroke="black" d="M382,-568.57C382,-568.57 304,-568.57 304,-568.57 301,-568.57 298,-565.57 298,-562.57 298,-562.57 298,-556.57 298,-556.57 298,-553.57 301,-550.57 304,-550.57 304,-550.57 382,-550.57 382,-550.57 385,-550.57 388,-553.57 388,-556.57 388,-556.57 388,-562.57 388,-562.57 388,-565.57 385,-568.57 382,-568.57"/>
<text text-anchor="start" x="306" y="-557.37" font-family="Helvetica,sans-Serif" font-size="9.00">mapper.module.ts</text>
</a>
</g>
</g>
<!-- src/modules/search.module.ts&#45;&gt;src/modules/mapper.module.ts -->
<g id="edge21" class="edge">
<title>src/modules/search.module.ts&#45;&gt;src/modules/mapper.module.ts</title>
<path fill="none" stroke="#000000" stroke-width="2" stroke-opacity="0.200000" d="M259.32,-559.57C269.62,-559.57 280.74,-559.57 291.39,-559.57"/>
<polygon fill="#000000" fill-opacity="0.200000" stroke="#000000" stroke-width="2" stroke-opacity="0.200000" points="291.59,-561.67 297.59,-559.57 291.59,-557.47 291.59,-561.67"/>
</g>
<!-- src/modules/mapper.module.ts&#45;&gt;src/dataAccess/entities/doctor.entity.ts -->
<g id="edge15" class="edge">
<title>src/modules/mapper.module.ts&#45;&gt;src/dataAccess/entities/doctor.entity.ts</title>
<path fill="none" stroke="#000000" stroke-width="2" stroke-opacity="0.200000" d="M354.15,-568.58C365.42,-577.92 384.58,-591.93 404,-597.57 429.98,-605.1 627.53,-615.82 647.5,-597.57 662.16,-584.17 642.49,-523.57 655.5,-508.57 660.88,-502.36 668.31,-498.46 676.19,-496.07"/>
<polygon fill="#000000" fill-opacity="0.200000" stroke="#000000" stroke-width="2" stroke-opacity="0.200000" points="676.99,-498.04 682.28,-494.52 675.95,-493.97 676.99,-498.04"/>
</g>
<!-- src/modules/mapper.module.ts&#45;&gt;src/dataAccess/entities/doctorSpecialty.entity.ts -->
<g id="edge16" class="edge">
<title>src/modules/mapper.module.ts&#45;&gt;src/dataAccess/entities/doctorSpecialty.entity.ts</title>
<path fill="none" stroke="#000000" stroke-width="2" stroke-opacity="0.200000" d="M351.78,-568.82C362.25,-580.47 382.1,-599.88 404,-607.57 429.53,-616.52 627.3,-625.56 647.5,-607.57 659.03,-597.3 645.24,-550.1 655.5,-538.57 656.38,-537.58 657.3,-536.66 658.27,-535.79"/>
<polygon fill="#000000" fill-opacity="0.200000" stroke="#000000" stroke-width="2" stroke-opacity="0.200000" points="659.94,-537.16 663.48,-531.88 657.42,-533.8 659.94,-537.16"/>
</g>
<!-- src/modules/mapper.module.ts&#45;&gt;src/dataAccess/entities/specialty.entity.ts -->
<g id="edge17" class="edge">
<title>src/modules/mapper.module.ts&#45;&gt;src/dataAccess/entities/specialty.entity.ts</title>
<path fill="none" stroke="#000000" stroke-width="2" stroke-opacity="0.200000" d="M349.55,-568.97C358.73,-583.49 378.62,-610.81 404,-621.57 503.64,-663.8 547,-661.72 647.5,-621.57 674.37,-610.83 696.91,-584.66 709.13,-568.09"/>
<polygon fill="#000000" fill-opacity="0.200000" stroke="#000000" stroke-width="2" stroke-opacity="0.200000" points="711.08,-568.98 712.88,-562.88 707.67,-566.53 711.08,-568.98"/>
</g>
<!-- src/modules/mapper.module.ts&#45;&gt;src/dataAccess/mapper/doctor.mapper.ts -->
<g id="edge18" class="edge">
<title>src/modules/mapper.module.ts&#45;&gt;src/dataAccess/mapper/doctor.mapper.ts</title>
<path fill="none" stroke="#000000" stroke-width="2" stroke-opacity="0.200000" d="M388.09,-559.57C396.39,-559.57 405.11,-559.57 413.52,-559.57"/>
<polygon fill="#000000" fill-opacity="0.200000" stroke="#000000" stroke-width="2" stroke-opacity="0.200000" points="413.89,-561.67 419.89,-559.57 413.89,-557.47 413.89,-561.67"/>
</g>
</g>
</svg>
